<?xml version="1.0" standalone="no"?>
<!DOCTYPE svg PUBLIC "-//W3C//DTD SVG 20010904//EN"
 "http://www.w3.org/TR/2001/REC-SVG-20010904/DTD/svg10.dtd">
<svg version="1.0" xmlns="http://www.w3.org/2000/svg"
 width="1000.000000pt" height="1000.000000pt" viewBox="0 0 1000.000000 1000.000000"
 preserveAspectRatio="xMidYMid meet">
<metadata>
Created by potrace 1.14, written by Peter Selinger 2001-2017
</metadata>
<g transform="translate(0.000000,1000.000000) scale(0.100000,-0.100000)"
fill="#000000" stroke="none">
<path d="M4949 8702 c-46 -24 -206 -116 -654 -377 -49 -29 -106 -61 -125 -71
-19 -10 -42 -24 -50 -30 -8 -6 -40 -25 -70 -41 -30 -17 -192 -110 -360 -208
-168 -98 -403 -235 -523 -304 -119 -69 -240 -139 -267 -156 l-50 -29 -1 -1096
c0 -602 -1 -1159 -1 -1237 0 -78 3 -146 7 -153 7 -12 53 -42 125 -82 25 -14
196 -113 380 -220 184 -107 355 -206 380 -220 25 -14 257 -148 515 -298 259
-151 479 -275 490 -277 11 -2 65 12 120 33 55 20 123 45 150 54 49 17 506 185
535 197 8 3 20 7 25 9 6 1 66 23 135 49 69 25 157 57 197 70 40 13 83 29 95
36 20 10 21 10 8 -3 -8 -8 -80 -52 -160 -98 -147 -84 -211 -121 -425 -247
-184 -108 -315 -183 -320 -183 -3 0 -23 -13 -46 -29 -22 -17 -57 -35 -77 -42
-20 -6 -44 -17 -52 -24 -8 -7 -100 -62 -205 -122 -310 -179 -525 -303 -603
-350 -41 -23 -75 -43 -77 -43 -1 0 -44 -25 -94 -55 -51 -30 -93 -55 -95 -55
-2 0 -34 -18 -70 -40 -36 -22 -70 -40 -75 -40 -5 0 -11 -3 -13 -8 -1 -4 -43
-31 -93 -59 -49 -28 -162 -92 -250 -143 -88 -51 -173 -101 -190 -110 -188
-108 -296 -173 -300 -180 -7 -12 23 -31 220 -144 94 -54 177 -102 185 -107
102 -61 203 -119 206 -119 3 0 21 -11 42 -23 20 -13 111 -67 202 -119 91 -52
253 -146 360 -208 107 -62 211 -122 230 -133 60 -34 222 -129 288 -169 35 -21
65 -38 67 -38 5 0 214 -122 269 -157 66 -43 51 -48 305 101 90 53 165 96 167
96 3 0 138 79 204 120 8 5 65 37 125 72 61 34 118 67 127 73 16 10 121 70 183
106 17 9 93 54 170 99 115 68 264 154 550 320 17 9 48 28 71 41 22 13 102 59
177 102 l137 79 0 1236 c0 681 -4 1242 -8 1248 -4 7 -52 38 -107 70 -139 80
-403 232 -445 256 -19 11 -161 93 -315 183 -154 89 -299 173 -321 186 -42 25
-297 173 -324 189 -8 5 -60 35 -115 67 -55 32 -109 63 -120 70 -44 26 -86 42
-103 38 -10 -2 -126 -38 -258 -81 -131 -43 -243 -79 -249 -80 -5 -1 -68 -20
-140 -44 -71 -23 -137 -43 -145 -45 -17 -5 -474 -149 -505 -160 l-20 -7 20 14
c11 8 97 59 190 113 94 54 217 126 275 160 58 33 150 88 205 120 55 32 144 85
198 117 53 32 116 67 140 79 23 12 170 96 327 187 157 91 353 205 435 252 83
48 276 160 430 250 154 89 300 174 325 188 25 14 57 32 72 41 85 51 145 87
163 96 29 16 271 157 329 191 27 16 48 34 47 39 -1 10 -89 66 -196 125 -33 18
-64 36 -70 40 -9 7 -291 171 -800 466 -93 54 -208 120 -255 147 -47 28 -98 58
-115 67 -16 9 -108 63 -204 119 -96 55 -175 101 -177 101 -2 0 -28 16 -59 35
-30 20 -63 38 -73 42 -9 3 -28 14 -42 23 -14 9 -50 31 -81 48 l-55 31 -55 -27z"/>
</g>
</svg>
